<svg width="60" height="58" viewBox="0 0 60 58" fill="none" xmlns="http://www.w3.org/2000/svg">
<path d="M18.326 24.0643L9.34714 18.9641L0.356354 24.0643V34.2412L9.34714 39.3297L18.326 34.2412V24.0643ZM16.3926 33.1467L9.34714 37.129L2.3016 33.1467V25.1588L9.34714 21.1649L16.3926 25.1588V33.1467Z" fill="#37392E" fill-opacity="0.5"/>
<path d="M38.6916 24.0527L29.7009 18.9641L20.722 24.0527V34.2296L29.7009 39.3297L38.6916 34.2296V24.0527Z" fill="#37392E" fill-opacity="0.5"/>
<path d="M49.4671 18.9641L39.8896 24.0643V34.2412L49.4671 39.3297L59.0572 34.2412V24.0643L49.4671 18.9641ZM56.9825 33.1467L49.4671 37.129L41.9519 33.1467V25.1588L49.4671 21.1649L56.9825 25.1588V33.1467Z" fill="#37392E" fill-opacity="0.5"/>
<path d="M11.1381 41.136V51.9116L20.1407 57.2994L29.1078 51.9116V41.136L20.1407 35.7358L11.1381 41.136ZM27.1414 50.7897L20.1407 54.9692L13.0334 50.7897V42.2949L20.1407 38.066L27.1651 42.2949L27.1414 50.7897Z" fill="#37392E" fill-opacity="0.5"/>
<path d="M30.3058 41.136V51.9116L39.2846 57.2994L48.2754 51.9116V41.136L39.2846 35.7358L30.3058 41.136ZM46.3302 50.7897L39.2846 55.0062L32.251 50.7897V42.2949L39.2846 38.066L46.3302 42.2949V50.7897Z" fill="#37392E" fill-opacity="0.5"/>
<path d="M29.1078 17.1702V6.35767L20.1526 0.994507L11.1381 6.35767V17.1333L20.1526 22.5581L29.1078 17.1702ZM13.0359 7.59058L20.1526 3.32471L27.1626 7.59058V16.0483L20.1526 20.2279L13.0359 16.0113V7.59058Z" fill="#37392E" fill-opacity="0.5"/>
<path d="M48.2754 17.2073V6.39462L39.2846 0.994507L30.3058 6.39462V17.1702L39.2846 22.5581L48.2754 17.2073ZM32.251 7.62754L39.2846 3.3987L46.3302 7.62754V16.0853L39.2846 20.3019L32.251 16.0853V7.62754Z" fill="#37392E" fill-opacity="0.5"/>
</svg>
