<svg width="57" height="58" viewBox="0 0 57 58" fill="none" xmlns="http://www.w3.org/2000/svg">
<path d="M51.892 1.39594H45.1027C43.0079 1.39594 41.3095 3.09415 41.3095 5.18913V11.9783C41.3095 14.0733 43.0079 15.7717 45.1027 15.7717H51.892C53.9869 15.7717 55.6853 14.0733 55.6853 11.9783V5.18913C55.6853 3.09415 53.9869 1.39594 51.892 1.39594Z" fill="#37392E" fill-opacity="0.5"/>
<path d="M23.8347 16.8915H30.085C32.6714 17.0385 35.1317 18.0574 37.0645 19.7822L37.299 20.0427C39.0327 21.9699 40.0531 24.4335 40.1896 27.0223V33.2465C40.1896 34.3308 40.6204 35.3709 41.3872 36.1376C42.154 36.9044 43.194 37.3352 44.2785 37.3352H51.5965C52.6809 37.3352 53.7209 36.9044 54.4877 36.1376C55.2545 35.3709 55.6853 34.3308 55.6853 33.2465V25.9284C55.6853 24.844 55.2545 23.8041 54.4877 23.0373C53.7209 22.2705 52.6809 21.8397 51.5965 21.8397H45.3722C42.7835 21.703 40.3199 20.6827 38.3927 18.9489L38.1323 18.7145C36.404 16.7839 35.3844 14.3224 35.2415 11.735V5.48467C35.2415 4.40034 34.8108 3.36031 34.044 2.59353C33.2771 1.82674 32.2372 1.39594 31.1528 1.39594H23.8347C22.7503 1.39594 21.7103 1.82674 20.9436 2.59353C20.1768 3.36031 19.746 4.40034 19.746 5.48467V12.8028C19.746 13.8872 20.1768 14.9271 20.9436 15.6939C21.7103 16.4606 22.7503 16.8915 23.8347 16.8915Z" fill="#37392E" fill-opacity="0.5"/>
<path d="M52.8432 42.137H46.7064C44.1519 41.9711 41.7315 40.9104 39.8536 39.1339L39.1633 38.4289C37.461 36.4963 36.4591 34.026 36.3251 31.4302V25.1629C36.3183 24.0777 35.8932 23.0388 35.1418 22.2714C34.3903 21.504 33.3732 21.0698 32.3105 21.063H26.1737C23.6403 20.9541 21.2206 19.9583 19.3211 18.2427L18.6307 17.5376C16.9284 15.6052 15.9266 13.1349 15.7924 10.5391V4.29795C15.7924 3.21057 15.3694 2.1677 14.6166 1.39877C13.8638 0.629962 12.8427 0.197998 11.778 0.197998H4.59276C3.52814 0.197998 2.50695 0.629962 1.75419 1.39877C1.00131 2.1677 0.578339 3.21057 0.578339 4.29795V11.6359C0.578339 12.7233 1.00131 13.7661 1.75419 14.535C2.50695 15.3039 3.52814 15.7359 4.59276 15.7359H10.704C13.2845 15.8564 15.7435 16.8904 17.6591 18.6606L18.3494 19.3657C20.0464 21.3015 21.0473 23.7698 21.1877 26.3641V32.6316C21.1943 33.7168 21.6195 34.7556 22.3709 35.5229C23.1222 36.2904 24.1395 36.7245 25.2021 36.7314H31.3388C33.8525 36.8921 36.2396 37.9132 38.115 39.63L38.8053 40.3351C40.5023 42.271 41.5033 44.7394 41.6436 47.3337V53.601C41.6502 54.6863 42.0754 55.7251 42.8268 56.4925C43.5782 57.2599 44.5954 57.694 45.658 57.7009H52.8687C53.9314 57.694 54.9486 57.2599 55.7 56.4925C56.4514 55.7251 56.8766 54.6863 56.8832 53.601V46.2369C56.8765 45.1472 56.4478 44.1043 55.691 43.3362C54.9341 42.5681 53.9102 42.1369 52.8432 42.137Z" fill="#37392E" fill-opacity="0.5"/>
<path d="M12.9246 42.1271H5.00378C2.55967 42.1271 0.578339 43.8255 0.578339 45.9204V52.7097C0.578339 54.8046 2.55967 56.5029 5.00378 56.5029H12.9246C15.3687 56.5029 17.35 54.8046 17.35 52.7097V45.9204C17.35 43.8255 15.3687 42.1271 12.9246 42.1271Z" fill="#37392E" fill-opacity="0.5"/>
<path d="M32.4289 41.0073H26.2046C23.6159 40.8706 21.1523 39.8504 19.225 38.1166L18.9647 37.8822C17.2253 35.9379 16.2051 33.4561 16.0739 30.8506V24.6003C16.061 23.5471 15.6422 22.5396 14.9048 21.7875C14.1673 21.0356 13.1681 20.5971 12.1153 20.5636H4.66707C3.58263 20.5636 2.54271 20.9944 1.77593 21.7612C1.00914 22.528 0.578339 23.5679 0.578339 24.6523V31.9704C0.578339 33.0548 1.00914 34.0948 1.77593 34.8617C2.54271 35.6284 3.58263 36.0591 4.66707 36.0591H10.9174C13.5037 36.2061 15.9641 37.2251 17.8969 38.9499L18.1313 39.2103C19.8651 41.1376 20.8854 43.6012 21.022 46.1898V52.4141C21.022 52.9533 21.1287 53.487 21.3357 53.9847C21.5429 54.4826 21.8464 54.9345 22.2289 55.3145C22.6112 55.6945 23.0651 55.9951 23.5642 56.1991C24.0633 56.403 24.5977 56.5063 25.1368 56.5028H32.4289C33.5132 56.5028 34.5533 56.0721 35.32 55.3053C36.0868 54.5386 36.5176 53.4985 36.5176 52.4141V45.096C36.5176 44.0117 36.0868 42.9717 35.32 42.2049C34.5533 41.4381 33.5132 41.0073 32.4289 41.0073Z" fill="#37392E" fill-opacity="0.5"/>
</svg>
