<svg width="61" height="59" viewBox="0 0 61 59" fill="none" xmlns="http://www.w3.org/2000/svg">
<path d="M11.8286 16.5977L15.993 18.7123C16.7596 19.0524 17.5937 19.2056 18.4289 19.1597C19.2641 19.1138 20.0771 18.8701 20.803 18.448L24.7385 15.8471C25.4156 15.3479 25.9668 14.6929 26.3468 13.9358C26.7268 13.1787 26.9249 12.3409 26.9247 11.491L26.675 6.72267C26.5838 5.87969 26.2989 5.07012 25.8432 4.35941C25.3874 3.6487 24.7737 3.05662 24.0512 2.63096L19.8868 0.463513C19.1218 0.119471 18.2876 -0.0367957 17.452 0.00729329C16.6164 0.0513823 15.8027 0.294558 15.0768 0.717262L11.1415 3.3182C10.4655 3.81861 9.91519 4.47381 9.5354 5.23073C9.15549 5.98753 8.95664 6.8248 8.95508 7.67423L9.20494 12.4426C9.28584 13.2971 9.566 14.1197 10.0222 14.8422C10.4784 15.5649 11.0977 16.1667 11.8286 16.5977Z" fill="#37392E" fill-opacity="0.5"/>
<path d="M37.2602 22.831L33.0958 20.7934C32.3311 20.4739 31.4986 20.3299 30.6651 20.3731C29.8315 20.4162 29.0203 20.6453 28.2962 21.0419L24.3192 23.4871C23.6457 23.9597 23.0971 24.5761 22.7175 25.2872C22.3379 25.9982 22.1376 26.7841 22.1328 27.5822L22.3828 32.0649C22.4739 32.8575 22.7587 33.6186 23.2144 34.2868C23.6702 34.9549 24.284 35.5115 25.0063 35.9116L29.1708 37.8995C29.9341 38.2228 30.7665 38.3698 31.6005 38.3284C32.4344 38.2869 33.2463 38.0582 33.9703 37.661L37.9161 35.2158C38.5899 34.7411 39.1384 34.1228 39.5179 33.4102C39.8975 32.6976 40.0977 31.9102 40.1025 31.1107L39.8526 26.6379C39.7571 25.8556 39.4734 25.1048 39.0238 24.4444C38.574 23.7841 37.9705 23.2319 37.2602 22.831Z" fill="#37392E" fill-opacity="0.5"/>
<path d="M50.2338 42.1286L45.7866 39.9999C44.9695 39.6535 44.0788 39.4962 43.1865 39.5406C42.2942 39.585 41.4252 39.8298 40.65 40.2554L36.4475 42.8736C35.7268 43.3785 35.1401 44.0383 34.7347 44.8C34.3291 45.5616 34.1161 46.4038 34.1126 47.2587L34.3796 52.0589C34.486 52.8938 34.7921 53.6941 35.2742 54.3973C35.7562 55.1006 36.4013 55.688 37.1591 56.114L41.6063 58.2426C42.4248 58.5848 43.3156 58.739 44.2075 58.6929C45.0994 58.6467 45.9676 58.4013 46.7428 57.9766L50.9564 55.3583C51.6763 54.8534 52.2618 54.1933 52.6655 53.4314C53.0692 52.6696 53.2798 51.8275 53.2802 50.9732L53.0466 46.2582C52.9507 45.4064 52.6459 44.5884 52.1571 43.8707C51.6683 43.1531 51.0093 42.5562 50.2338 42.1286Z" fill="#37392E" fill-opacity="0.5"/>
<path d="M18.6182 30.9239L18.4203 27.2961C18.4251 26.4663 18.6254 25.649 19.0052 24.9097C19.3849 24.1703 19.9336 23.5293 20.6074 23.0378L28.2832 18.087C29.0074 17.6746 29.8191 17.4364 30.6529 17.3915C31.4867 17.3467 32.3195 17.4965 33.0844 17.8286L36.3547 19.4823C37.1201 19.8187 37.9544 19.9715 38.7903 19.9284C39.6263 19.8853 40.4403 19.6475 41.1664 19.2343L45.1032 16.6814C45.7788 16.1917 46.3288 15.5511 46.7087 14.8112C47.0887 14.0715 47.2879 13.2535 47.2903 12.4231L47.0404 7.77203C46.9508 6.9461 46.6665 6.15263 46.2105 5.45601C45.7545 4.75928 45.1398 4.17893 44.4158 3.76178L40.2499 1.64297C39.4831 1.31068 38.6487 1.16091 37.8131 1.20577C36.9776 1.25063 36.1643 1.48887 35.4382 1.90136L31.4181 4.4026C30.7437 4.89292 30.1953 5.53394 29.8171 6.27377C29.4389 7.0136 29.2417 7.83136 29.2414 8.6609L29.4288 12.2887C29.4285 13.1184 29.2312 13.9361 28.853 14.676C28.4748 15.4158 27.9264 16.0568 27.2521 16.547L19.5764 21.4978C18.8502 21.911 18.0363 22.1489 17.2004 22.192C16.3644 22.2351 15.5301 22.0822 14.7647 21.7459L11.5049 20.1025C10.7395 19.7662 9.90513 19.6134 9.06913 19.6565C8.23323 19.6996 7.4193 19.9373 6.69318 20.3505L2.75636 22.8931C2.08013 23.3823 1.5297 24.0228 1.14967 24.7627C0.769627 25.5027 0.570807 26.3211 0.569244 27.1514L0.819199 31.8128C0.907934 32.639 1.19195 33.4328 1.64791 34.1297C2.10398 34.8265 2.71918 35.4066 3.44374 35.8231L7.60969 37.8902C8.37643 38.2226 9.21087 38.3723 10.0464 38.3275C10.8818 38.2826 11.6952 38.0444 12.4214 37.6318L16.3582 35.0892C17.0347 34.6166 17.591 33.9942 17.9833 33.2712C18.3755 32.5483 18.5929 31.7447 18.6182 30.9239Z" fill="#37392E" fill-opacity="0.5"/>
<path d="M60.2595 27.081C60.1666 26.2313 59.8805 25.4156 59.424 24.6987C58.9675 23.9817 58.3533 23.3834 57.6303 22.9514L53.4569 20.8227C52.6886 20.4812 51.8526 20.3274 51.0159 20.3736C50.179 20.4198 49.3642 20.6647 48.6366 21.0888L44.6926 23.707C44.0165 24.212 43.466 24.8718 43.0854 25.6334C42.7049 26.395 42.5049 27.2373 42.5017 28.0921L42.7 31.8386C42.6967 32.6934 42.4968 33.5356 42.1162 34.2973C41.7357 35.0589 41.1851 35.7188 40.5088 36.2237L32.8298 41.3113C32.1023 41.7361 31.2876 41.9814 30.4506 42.0276C29.6136 42.0738 28.7777 41.9196 28.0095 41.5774L24.7334 39.8744C23.967 39.5322 23.1328 39.378 22.2975 39.4242C21.4622 39.4705 20.6492 39.7157 19.9235 40.1405L15.9379 42.7481C15.263 43.2542 14.7134 43.9142 14.3329 44.6757C13.9524 45.437 13.7518 46.2786 13.747 47.1332L13.9973 51.9333C14.0887 52.782 14.3742 53.597 14.8308 54.3125C15.2876 55.0279 15.9027 55.6239 16.6267 56.0524L20.8 58.2344C21.5649 58.5806 22.3991 58.7379 23.2348 58.6935C24.0706 58.6491 24.8842 58.4042 25.6099 57.9788L29.5641 55.3605C30.2385 54.8539 30.7878 54.1937 31.1681 53.4325C31.5485 52.6711 31.7495 51.8299 31.7552 50.9755L31.557 47.2289C31.5593 46.3739 31.7589 45.5315 32.1395 44.7698C32.5201 44.0079 33.0711 43.3482 33.7479 42.8438L41.427 37.7457C42.1544 37.3202 42.9699 37.0753 43.8073 37.0309C44.6447 36.9865 45.4805 37.1438 46.2472 37.4902L49.5129 39.1826C50.2797 39.5289 51.1156 39.6862 51.953 39.6419C52.7904 39.5975 53.6058 39.3527 54.3332 38.9272L58.2876 36.3089C58.9624 35.8033 59.5114 35.1431 59.8902 34.3814C60.269 33.6197 60.4669 32.7778 60.4681 31.9238L60.2595 27.081Z" fill="#37392E" fill-opacity="0.5"/>
</svg>
