<svg width="60" height="59" viewBox="0 0 60 59" fill="none" xmlns="http://www.w3.org/2000/svg">
<path d="M9.97397 10.7818L0.989143 20.3656L9.97397 29.9494L18.9588 20.3656L9.97397 10.7818Z" fill="#37392E" fill-opacity="0.5"/>
<path d="M19.3581 19.7716L10.1737 10.7818C12.6076 13.165 13.9749 16.3968 13.9749 19.7666C13.9749 23.1364 12.6076 26.3682 10.1737 28.7514L0.989143 37.7313L10.1737 46.7211L19.3581 37.7313L28.5426 28.7514L19.3581 19.7716Z" fill="#37392E" fill-opacity="0.5"/>
<path d="M50.7053 46.7211L59.69 38.3352L50.7053 29.9494L41.7203 38.3352L50.7053 46.7211Z" fill="#37392E" fill-opacity="0.5"/>
<path d="M41.3141 37.7438L50.502 46.7211C48.0671 44.3386 46.6994 41.1076 46.6994 37.7388C46.6994 34.37 48.0671 31.139 50.502 28.7565L59.69 19.7691L50.502 10.7818L41.3141 19.7691L32.1365 28.7565L41.3141 37.7438Z" fill="#37392E" fill-opacity="0.5"/>
<path d="M11.7709 49.7161L21.3547 58.7008L30.9386 49.7161L21.3547 40.7312L11.7709 49.7161Z" fill="#37392E" fill-opacity="0.5"/>
<path d="M21.0604 40.325L11.7709 49.5128C14.2336 47.078 17.5731 45.7102 21.0552 45.7102C24.5373 45.7102 27.8769 47.078 30.3395 49.5128L39.6187 58.7009L48.9082 49.5128L39.6187 40.325L30.3395 31.1474L21.0604 40.325Z" fill="#37392E" fill-opacity="0.5"/>
<path d="M48.9082 8.98486L39.9233 0L30.9386 8.98479L39.9233 17.9696L48.9082 8.98486Z" fill="#37392E" fill-opacity="0.5"/>
<path d="M39.6316 17.5703L48.9082 8.78518C46.4462 11.1133 43.1076 12.4211 39.6265 12.4211C36.1453 12.4211 32.8067 11.1133 30.3447 8.78518L21.0578 0L11.7709 8.78518L21.0578 17.5703L30.3447 26.3555L39.6316 17.5703Z" fill="#37392E" fill-opacity="0.5"/>
</svg>
