<svg width="198" height="53" viewBox="0 0 198 53" fill="none" xmlns="http://www.w3.org/2000/svg">
<path d="M67.39 20.69C66.75 20.69 66.22 20.86 65.8 21.2C65.4 21.54 65.2 22.03 65.2 22.67C65.2 23.31 65.39 23.83 65.77 24.23C66.15 24.61 66.64 24.91 67.24 25.13C67.86 25.33 68.54 25.53 69.28 25.73C70.04 25.91 70.79 26.14 71.53 26.42C72.27 26.68 72.94 27.01 73.54 27.41C74.16 27.81 74.66 28.38 75.04 29.12C75.42 29.84 75.61 30.71 75.61 31.73C75.61 33.51 74.88 35.04 73.42 36.32C71.98 37.58 70.07 38.21 67.69 38.21C65.33 38.21 63.42 37.64 61.96 36.5C60.52 35.36 59.8 33.74 59.8 31.64H65.26C65.4 33.32 66.26 34.16 67.84 34.16C68.58 34.16 69.16 33.97 69.58 33.59C70 33.19 70.21 32.69 70.21 32.09C70.21 31.49 70.02 31 69.64 30.62C69.26 30.24 68.76 29.94 68.14 29.72C67.54 29.5 66.86 29.3 66.1 29.12C65.36 28.92 64.62 28.68 63.88 28.4C63.14 28.12 62.46 27.79 61.84 27.41C61.24 27.01 60.75 26.45 60.37 25.73C59.99 24.99 59.8 24.12 59.8 23.12C59.8 21.16 60.53 19.59 61.99 18.41C63.45 17.23 65.31 16.64 67.57 16.64C69.85 16.64 71.69 17.16 73.09 18.2C74.49 19.22 75.22 20.84 75.28 23.06H69.7C69.62 22.3 69.37 21.72 68.95 21.32C68.55 20.9 68.03 20.69 67.39 20.69ZM89.8238 32.75C90.5038 32.03 90.8438 30.99 90.8438 29.63C90.8438 28.27 90.4938 27.24 89.7938 26.54C89.0938 25.82 88.2638 25.46 87.3038 25.46C86.3438 25.46 85.5138 25.82 84.8138 26.54C84.1338 27.24 83.7938 28.27 83.7938 29.63C83.7938 30.99 84.1438 32.03 84.8438 32.75C85.5638 33.47 86.4038 33.83 87.3638 33.83C88.3238 33.83 89.1438 33.47 89.8238 32.75ZM81.0938 35.84C79.4138 34.26 78.5738 32.18 78.5738 29.6C78.5738 27.02 79.4138 24.96 81.0938 23.42C82.7738 21.86 84.8538 21.08 87.3338 21.08C89.8138 21.08 91.8838 21.86 93.5438 23.42C95.2238 24.96 96.0638 27.02 96.0638 29.6C96.0638 32.18 95.2338 34.26 93.5738 35.84C91.9138 37.42 89.8438 38.21 87.3638 38.21C84.8838 38.21 82.7938 37.42 81.0938 35.84ZM99.4734 38V15.8H104.603V38H99.4734ZM119.412 32.69C120.152 31.97 120.522 30.95 120.522 29.63C120.522 28.31 120.152 27.3 119.412 26.6C118.672 25.88 117.822 25.52 116.862 25.52C115.902 25.52 115.052 25.88 114.312 26.6C113.572 27.32 113.202 28.34 113.202 29.66C113.202 30.98 113.572 32 114.312 32.72C115.052 33.42 115.902 33.77 116.862 33.77C117.822 33.77 118.672 33.41 119.412 32.69ZM110.202 35.81C108.722 34.21 107.982 32.16 107.982 29.66C107.982 27.16 108.722 25.11 110.202 23.51C111.682 21.89 113.482 21.08 115.602 21.08C117.742 21.08 119.382 21.87 120.522 23.45V21.26H125.652V38H120.522V35.57C119.282 37.33 117.622 38.21 115.542 38.21C113.462 38.21 111.682 37.41 110.202 35.81ZM135.389 21.26V24.38C136.589 22.18 138.189 21.08 140.189 21.08V26.3H138.929C137.749 26.3 136.859 26.58 136.259 27.14C135.679 27.7 135.389 28.68 135.389 30.08V38H130.259V21.26H135.389ZM143.074 16.94H152.224C154.364 16.94 156.064 17.46 157.324 18.5C158.604 19.54 159.244 20.86 159.244 22.46C159.244 24.84 157.854 26.45 155.074 27.29C156.494 27.49 157.624 28.08 158.464 29.06C159.304 30.04 159.724 31.19 159.724 32.51C159.724 34.19 159.104 35.53 157.864 36.53C156.644 37.51 154.934 38 152.734 38H143.074V16.94ZM148.204 20.84V25.4H151.564C152.304 25.4 152.894 25.21 153.334 24.83C153.794 24.45 154.024 23.89 154.024 23.15C154.024 22.39 153.794 21.82 153.334 21.44C152.894 21.04 152.304 20.84 151.564 20.84H148.204ZM148.204 34.1H152.074C152.774 34.1 153.354 33.89 153.814 33.47C154.274 33.05 154.504 32.47 154.504 31.73C154.504 30.99 154.284 30.4 153.844 29.96C153.404 29.52 152.834 29.3 152.134 29.3H148.204V34.1ZM173.439 32.75C174.119 32.03 174.459 30.99 174.459 29.63C174.459 28.27 174.109 27.24 173.409 26.54C172.709 25.82 171.879 25.46 170.919 25.46C169.959 25.46 169.129 25.82 168.429 26.54C167.749 27.24 167.409 28.27 167.409 29.63C167.409 30.99 167.759 32.03 168.459 32.75C169.179 33.47 170.019 33.83 170.979 33.83C171.939 33.83 172.759 33.47 173.439 32.75ZM164.709 35.84C163.029 34.26 162.189 32.18 162.189 29.6C162.189 27.02 163.029 24.96 164.709 23.42C166.389 21.86 168.469 21.08 170.949 21.08C173.429 21.08 175.499 21.86 177.159 23.42C178.839 24.96 179.679 27.02 179.679 29.6C179.679 32.18 178.849 34.26 177.189 35.84C175.529 37.42 173.459 38.21 170.979 38.21C168.499 38.21 166.409 37.42 164.709 35.84ZM197.219 21.26L191.819 29.36L197.219 38H191.459L188.729 33.65L186.029 38H180.959L186.389 29.9L180.959 21.26H186.719L189.449 25.61L192.149 21.26H197.219Z" fill="white"/>
<path d="M0 13.25L22.8973 0L45.8029 13.25L46 39.6374L22.8973 53L0 39.75V13.25ZM4.57684 18.7272V29.2345L11.9004 33.3403V41.1048L20.6023 46.1779V27.9078L4.57684 18.7272ZM41.2408 18.7272L25.2153 27.9062V46.1762L33.909 41.1032V33.3486L41.2425 29.2345L41.2408 18.7272ZM6.86197 14.5783L22.8628 23.7307L38.8965 14.5005L30.4181 9.64434L22.9483 13.9407L15.4357 9.593L6.86197 14.5783Z" fill="white"/>
</svg>
